Coordinates
version=1
nRows=12
nColumns=34
inDegrees=yes

Units are S.I. units (second, meters, Newtons, ...)
If the header above contains a line with 'inDegrees', this indicates whether rotational values are in degrees (yes) or radians (no).

endheader
time	pelvis_tilt	pelvis_list	pelvis_rotation	pelvis_tx	pelvis_ty	pelvis_tz	hip_flexion_r	hip_adduction_r	hip_rotation_r	knee_angle_r	ankle_angle_r	subtalar_angle_r	mtp_angle_r	hip_flexion_l	hip_adduction_l	hip_rotation_l	knee_angle_l	ankle_angle_l	subtalar_angle_l	mtp_angle_l	lumbar_extension	lumbar_bending	lumbar_rotation	arm_flex_r	arm_add_r	arm_rot_r	elbow_flex_r	pro_sup_r	arm_flex_l	arm_add_l	arm_rot_l	elbow_flex_l	pro_sup_l
      0.00000000	     -0.52387671	     -0.72349615	     36.48939868	      0.24634074	      0.87251257	     -0.20055875	     26.46184532	     -9.40567678	     -6.34006246	     62.90521152	      6.60071415	    -16.69009852	      0.00000000	     14.14072179	      6.52206163	      6.03304655	     21.36053484	      4.25180349	    -22.10894728	      0.00000000	     -2.70904269	     -1.23587452	     -7.73629600	     -0.93538530	     -4.28252494	      5.22445103	     22.16625155	     80.42706651	      1.55918442	    -13.34409771	     12.19662842	     30.77602532	     80.68528135
      0.01666670	     -3.43706422	     -0.90545570	     35.73482532	      0.24640602	      0.87300911	     -0.19754450	     30.79921475	    -10.92690302	     -6.25573697	     61.11923274	      6.66389264	    -18.62353944	      0.00000000	     17.33669325	      8.32709371	      3.40248711	     22.27661665	      4.46235231	    -22.15019871	      0.00000000	      0.67564481	     -2.64586084	     -7.62372398	     -1.38515981	     -3.97972796	      3.71971085	     22.11674069	     80.32121441	      0.77796503	    -13.46937788	     11.30873553	     30.95453462	     80.34747875
      0.03333330	     -4.99320910	     -1.47333385	     36.11333383	      0.24663629	      0.87341164	     -0.19567889	     32.66273273	    -11.23373949	     -7.31232319	     57.51420044	      6.11005649	    -19.62063479	      0.00000000	     18.14188189	      8.65612164	      2.62029856	     21.12586799	      2.75142747	    -21.53660853	      0.00000000	      3.66144571	     -3.75032147	     -8.14385927	     -1.94208809	     -3.00080404	      1.95615355	     21.57396701	     80.18048592	      0.43847225	    -13.62052116	     10.45028485	     29.98378685	     79.93201943
      0.05000000	     -5.38359990	     -1.91519362	     36.60279357	      0.24646050	      0.87631404	     -0.19432342	     32.85372602	    -10.85155083	     -8.26546470	     53.82872794	      8.33159907	    -18.85266468	      0.00000000	     17.70775856	      8.44782346	      3.15964406	     20.33532022	      1.57322201	    -22.12328498	      0.00000000	      4.56388694	     -3.90058209	     -8.22937118	     -2.42059600	     -2.33650296	     -0.89125829	     21.28398523	     80.05819334	      0.79945636	    -13.62247487	      8.68343242	     29.69341617	     79.07076103
      0.06666670	     -5.77604552	     -2.35529503	     36.92722017	      0.24617623	      0.87756433	     -0.19371901	     32.87951158	    -10.25619643	     -8.66067566	     49.68278108	      9.54110965	    -19.22435167	      0.00000000	     16.75223583	      8.14642703	      3.48195567	     18.34841195	      0.88927118	    -21.44531546	      0.00000000	      5.29434530	     -4.00821671	     -8.36891024	     -2.92287513	     -2.07492310	     -1.11179981	     21.29808344	     80.12031820	      0.96647819	    -13.87448201	      8.41354588	     29.89454469	     78.93796524
      0.08333330	     -5.28514472	     -2.68618950	     37.34760575	      0.24468512	      0.87844346	     -0.19346015	     31.84602620	     -9.45387845	     -9.37669470	     45.42867356	     10.88910731	    -18.80826604	      0.00000000	     14.68600450	      7.46859268	      4.25407454	     15.79552564	      1.53394576	    -19.69980602	      0.00000000	      4.76871813	     -3.45293461	     -8.84640350	     -3.03413809	     -1.89405309	     -1.81768540	     21.42750268	     80.38564427	      1.19461180	    -13.93652258	      7.47484170	     30.26745767	     78.36560535
      0.10000000	     -4.87168993	     -3.12275757	     37.57522861	      0.24217511	      0.87766921	     -0.19295384	     31.19190460	     -8.65486077	     -9.65541294	     41.84663806	     11.26647092	    -18.67776667	      0.00000000	     12.87701028	      6.73362914	      4.80650136	     13.42554586	      2.76199714	    -17.52998228	      0.00000000	      4.36713685	     -2.76591244	     -9.07852619	     -3.04066404	     -1.89857948	     -2.02910510	     21.44670453	     80.74898084	      1.38362887	    -13.88575472	      6.90072975	     30.91754316	     77.93635063
      0.11666670	     -4.37551119	     -3.45551359	     37.83615935	      0.23870706	      0.87690833	     -0.19140262	     30.64122160	     -7.95590139	     -9.87860514	     38.79437439	     11.02281241	    -18.56597784	      0.00000000	     11.09093815	      6.02781529	      5.10561793	     11.35208165	      4.58126809	    -14.88400409	      0.00000000	      3.77386538	     -2.02500710	     -9.41434239	     -2.84300623	     -1.99808238	     -2.01351045	     21.54865153	     81.23273622	      1.60319612	    -13.84701013	      6.54784690	     31.71150499	     77.58989756
      0.13333330	     -3.98367111	     -3.83078666	     38.16339863	      0.23542422	      0.87562130	     -0.18950186	     30.33986170	     -7.31899558	    -10.03772571	     36.02321929	     10.41872669	    -18.33720338	      0.00000000	      9.77629889	      5.34549484	      5.42177409	      9.90160961	      6.20739147	    -12.65372878	      0.00000000	      3.26764485	     -1.34667376	     -9.80177555	     -2.59757096	     -2.12863641	     -1.89387707	     21.67425927	     81.71527498	      1.88263220	    -13.83612118	      6.51361711	     32.42440289	     77.42874365
      0.15000000	     -3.79103413	     -4.30179365	     38.56372437	      0.23342703	      0.87407684	     -0.18831663	     30.23242284	     -6.72516342	    -10.19576877	     33.29905099	      9.75625328	    -18.01180997	      0.00000000	      8.98171571	      4.69693680	      5.63660022	      8.93160291	      6.98543878	    -11.43959624	      0.00000000	      3.04498552	     -0.76148507	    -10.16001407	     -2.42901789	     -2.24974264	     -1.80022733	     21.74068407	     82.01447350	      2.26600066	    -13.79865437	      6.67191738	     32.89232893	     77.43375547
      0.16666670	     -3.37951808	     -4.51058545	     38.99310375	      0.23194058	      0.87336433	     -0.18757242	     29.61177478	     -6.15733399	    -10.33482848	     30.52519803	      8.90088885	    -17.83062693	      0.00000000	      7.92081888	      4.03959351	      5.23145480	      8.31428088	      7.39991613	    -10.27757066	      0.00000000	      2.50030732	     -0.21949604	    -10.64446483	     -2.14845827	     -2.35051050	     -1.64467561	     21.85233996	     82.46944175	      2.59890336	    -13.84034370	      7.11551812	     33.21148296	     77.57125880
      0.18333330	     -3.34446418	     -5.00233585	     39.35994612	      0.23048042	      0.87294021	     -0.18675453	     29.44292172	     -5.59002848	    -10.49174100	     27.94092171	      8.10932316	    -17.29727217	      0.00000000	      7.38341612	      3.33349562	      4.18178197	      7.92332294	      5.90366964	    -10.00946628	      0.00000000	      2.61389274	      0.32444863	    -10.91081470	     -2.06683013	     -2.53865728	     -1.63724391	     21.87867252	     82.60837084	      2.77768143	    -13.62338332	      7.38209947	     33.36394102	     77.66663800
